<svg xmlns="http://www.w3.org/2000/svg" viewBox="0 0 120 80" fill="none">
  <rect width="120" height="80" rx="8" fill="#1a1f71"/>
  <rect x="0" y="20" width="120" height="16" fill="#2d3595"/>
  <rect x="12" y="52" width="40" height="8" rx="2" fill="#d4af37"/>
  <rect x="12" y="64" width="25" height="4" rx="1" fill="rgba(255,255,255,0.3)"/>
  <rect x="40" y="64" width="20" height="4" rx="1" fill="rgba(255,255,255,0.3)"/>
  <rect x="63" y="64" width="15" height="4" rx="1" fill="rgba(255,255,255,0.3)"/>
  <circle cx="85" cy="60" r="12" fill="#eb001b"/>
  <circle cx="100" cy="60" r="12" fill="#f79e1b"/>
  <path d="M92.5 60c0-4.5 2.5-8.5 6.2-10.5-1.7-1-3.7-1.5-5.7-1.5-6.6 0-12 5.4-12 12s5.4 12 12 12c2 0 4-.5 5.7-1.5-3.7-2-6.2-6-6.2-10.5z" fill="#ff5f00"/>
  <text x="12" y="14" fill="white" font-family="Arial, sans-serif" font-size="8" font-weight="bold">CREDIT / DEBIT</text>
</svg>
