<svg xmlns="http://www.w3.org/2000/svg" viewBox="0 0 41 41" role="img" aria-label="QR code: download Rosary73 on the App Store">
  <rect width="41" height="41" fill="#ffffff"/>
  <path d="M2,2H3V3H2zM3,2H4V3H3zM4,2H5V3H4zM5,2H6V3H5zM6,2H7V3H6zM7,2H8V3H7zM8,2H9V3H8zM10,2H11V3H10zM11,2H12V3H11zM13,2H14V3H13zM14,2H15V3H14zM15,2H16V3H15zM17,2H18V3H17zM19,2H20V3H19zM20,2H21V3H20zM21,2H22V3H21zM23,2H24V3H23zM24,2H25V3H24zM25,2H26V3H25zM28,2H29V3H28zM29,2H30V3H29zM30,2H31V3H30zM32,2H33V3H32zM33,2H34V3H33zM34,2H35V3H34zM35,2H36V3H35zM36,2H37V3H36zM37,2H38V3H37zM38,2H39V3H38zM2,3H3V4H2zM8,3H9V4H8zM11,3H12V4H11zM14,3H15V4H14zM16,3H17V4H16zM17,3H18V4H17zM19,3H20V4H19zM20,3H21V4H20zM23,3H24V4H23zM24,3H25V4H24zM26,3H27V4H26zM27,3H28V4H27zM28,3H29V4H28zM29,3H30V4H29zM30,3H31V4H30zM32,3H33V4H32zM38,3H39V4H38zM2,4H3V5H2zM4,4H5V5H4zM5,4H6V5H5zM6,4H7V5H6zM8,4H9V5H8zM11,4H12V5H11zM13,4H14V5H13zM14,4H15V5H14zM15,4H16V5H15zM17,4H18V5H17zM20,4H21V5H20zM22,4H23V5H22zM24,4H25V5H24zM25,4H26V5H25zM28,4H29V5H28zM32,4H33V5H32zM34,4H35V5H34zM35,4H36V5H35zM36,4H37V5H36zM38,4H39V5H38zM2,5H3V6H2zM4,5H5V6H4zM5,5H6V6H5zM6,5H7V6H6zM8,5H9V6H8zM10,5H11V6H10zM11,5H12V6H11zM12,5H13V6H12zM13,5H14V6H13zM17,5H18V6H17zM19,5H20V6H19zM20,5H21V6H20zM21,5H22V6H21zM24,5H25V6H24zM25,5H26V6H25zM29,5H30V6H29zM32,5H33V6H32zM34,5H35V6H34zM35,5H36V6H35zM36,5H37V6H36zM38,5H39V6H38zM2,6H3V7H2zM4,6H5V7H4zM5,6H6V7H5zM6,6H7V7H6zM8,6H9V7H8zM11,6H12V7H11zM12,6H13V7H12zM14,6H15V7H14zM17,6H18V7H17zM22,6H23V7H22zM23,6H24V7H23zM25,6H26V7H25zM26,6H27V7H26zM29,6H30V7H29zM30,6H31V7H30zM32,6H33V7H32zM34,6H35V7H34zM35,6H36V7H35zM36,6H37V7H36zM38,6H39V7H38zM2,7H3V8H2zM8,7H9V8H8zM11,7H12V8H11zM12,7H13V8H12zM15,7H16V8H15zM16,7H17V8H16zM17,7H18V8H17zM18,7H19V8H18zM22,7H23V8H22zM27,7H28V8H27zM29,7H30V8H29zM30,7H31V8H30zM32,7H33V8H32zM38,7H39V8H38zM2,8H3V9H2zM3,8H4V9H3zM4,8H5V9H4zM5,8H6V9H5zM6,8H7V9H6zM7,8H8V9H7zM8,8H9V9H8zM10,8H11V9H10zM12,8H13V9H12zM14,8H15V9H14zM16,8H17V9H16zM18,8H19V9H18zM20,8H21V9H20zM22,8H23V9H22zM24,8H25V9H24zM26,8H27V9H26zM28,8H29V9H28zM30,8H31V9H30zM32,8H33V9H32zM33,8H34V9H33zM34,8H35V9H34zM35,8H36V9H35zM36,8H37V9H36zM37,8H38V9H37zM38,8H39V9H38zM11,9H12V10H11zM13,9H14V10H13zM14,9H15V10H14zM15,9H16V10H15zM19,9H20V10H19zM20,9H21V10H20zM21,9H22V10H21zM22,9H23V10H22zM24,9H25V10H24zM25,9H26V10H25zM26,9H27V10H26zM27,9H28V10H27zM28,9H29V10H28zM30,9H31V10H30zM4,10H5V11H4zM6,10H7V11H6zM7,10H8V11H7zM8,10H9V11H8zM10,10H11V11H10zM13,10H14V11H13zM16,10H17V11H16zM18,10H19V11H18zM19,10H20V11H19zM21,10H22V11H21zM22,10H23V11H22zM24,10H25V11H24zM25,10H26V11H25zM28,10H29V11H28zM29,10H30V11H29zM30,10H31V11H30zM31,10H32V11H31zM35,10H36V11H35zM38,10H39V11H38zM7,11H8V12H7zM11,11H12V12H11zM12,11H13V12H12zM13,11H14V12H13zM14,11H15V12H14zM15,11H16V12H15zM16,11H17V12H16zM19,11H20V12H19zM20,11H21V12H20zM28,11H29V12H28zM29,11H30V12H29zM30,11H31V12H30zM32,11H33V12H32zM33,11H34V12H33zM35,11H36V12H35zM37,11H38V12H37zM38,11H39V12H38zM6,12H7V13H6zM8,12H9V13H8zM11,12H12V13H11zM15,12H16V13H15zM16,12H17V13H16zM22,12H23V13H22zM23,12H24V13H23zM26,12H27V13H26zM27,12H28V13H27zM29,12H30V13H29zM30,12H31V13H30zM32,12H33V13H32zM34,12H35V13H34zM36,12H37V13H36zM38,12H39V13H38zM3,13H4V14H3zM5,13H6V14H5zM6,13H7V14H6zM7,13H8V14H7zM10,13H11V14H10zM11,13H12V14H11zM13,13H14V14H13zM15,13H16V14H15zM17,13H18V14H17zM18,13H19V14H18zM21,13H22V14H21zM22,13H23V14H22zM24,13H25V14H24zM25,13H26V14H25zM27,13H28V14H27zM28,13H29V14H28zM30,13H31V14H30zM31,13H32V14H31zM35,13H36V14H35zM2,14H3V15H2zM4,14H5V15H4zM8,14H9V15H8zM10,14H11V15H10zM13,14H14V15H13zM14,14H15V15H14zM16,14H17V15H16zM19,14H20V15H19zM20,14H21V15H20zM24,14H25V15H24zM25,14H26V15H25zM27,14H28V15H27zM29,14H30V15H29zM30,14H31V15H30zM31,14H32V15H31zM32,14H33V15H32zM33,14H34V15H33zM35,14H36V15H35zM37,14H38V15H37zM3,15H4V16H3zM5,15H6V16H5zM10,15H11V16H10zM11,15H12V16H11zM13,15H14V16H13zM14,15H15V16H14zM16,15H17V16H16zM18,15H19V16H18zM20,15H21V16H20zM21,15H22V16H21zM23,15H24V16H23zM24,15H25V16H24zM30,15H31V16H30zM32,15H33V16H32zM35,15H36V16H35zM36,15H37V16H36zM38,15H39V16H38zM3,16H4V17H3zM4,16H5V17H4zM8,16H9V17H8zM9,16H10V17H9zM10,16H11V17H10zM11,16H12V17H11zM12,16H13V17H12zM15,16H16V17H15zM18,16H19V17H18zM19,16H20V17H19zM20,16H21V17H20zM21,16H22V17H21zM22,16H23V17H22zM23,16H24V17H23zM24,16H25V17H24zM27,16H28V17H27zM32,16H33V17H32zM34,16H35V17H34zM36,16H37V17H36zM37,16H38V17H37zM38,16H39V17H38zM2,17H3V18H2zM4,17H5V18H4zM5,17H6V18H5zM6,17H7V18H6zM11,17H12V18H11zM13,17H14V18H13zM14,17H15V18H14zM17,17H18V18H17zM20,17H21V18H20zM22,17H23V18H22zM25,17H26V18H25zM26,17H27V18H26zM27,17H28V18H27zM29,17H30V18H29zM31,17H32V18H31zM33,17H34V18H33zM37,17H38V18H37zM7,18H8V19H7zM8,18H9V19H8zM10,18H11V19H10zM13,18H14V19H13zM15,18H16V19H15zM16,18H17V19H16zM17,18H18V19H17zM19,18H20V19H19zM20,18H21V19H20zM21,18H22V19H21zM22,18H23V19H22zM24,18H25V19H24zM25,18H26V19H25zM27,18H28V19H27zM29,18H30V19H29zM30,18H31V19H30zM31,18H32V19H31zM32,18H33V19H32zM33,18H34V19H33zM35,18H36V19H35zM38,18H39V19H38zM2,19H3V20H2zM3,19H4V20H3zM6,19H7V20H6zM10,19H11V20H10zM16,19H17V20H16zM19,19H20V20H19zM24,19H25V20H24zM26,19H27V20H26zM27,19H28V20H27zM30,19H31V20H30zM32,19H33V20H32zM35,19H36V20H35zM37,19H38V20H37zM38,19H39V20H38zM2,20H3V21H2zM3,20H4V21H3zM4,20H5V21H4zM8,20H9V21H8zM9,20H10V21H9zM12,20H13V21H12zM17,20H18V21H17zM23,20H24V21H23zM24,20H25V21H24zM25,20H26V21H25zM27,20H28V21H27zM30,20H31V21H30zM32,20H33V21H32zM33,20H34V21H33zM34,20H35V21H34zM35,20H36V21H35zM37,20H38V21H37zM38,20H39V21H38zM3,21H4V22H3zM6,21H7V22H6zM9,21H10V22H9zM13,21H14V22H13zM14,21H15V22H14zM15,21H16V22H15zM17,21H18V22H17zM20,21H21V22H20zM22,21H23V22H22zM27,21H28V22H27zM29,21H30V22H29zM30,21H31V22H30zM31,21H32V22H31zM33,21H34V22H33zM35,21H36V22H35zM38,21H39V22H38zM3,22H4V23H3zM6,22H7V23H6zM7,22H8V23H7zM8,22H9V23H8zM11,22H12V23H11zM13,22H14V23H13zM15,22H16V23H15zM16,22H17V23H16zM17,22H18V23H17zM18,22H19V23H18zM21,22H22V23H21zM24,22H25V23H24zM26,22H27V23H26zM27,22H28V23H27zM28,22H29V23H28zM29,22H30V23H29zM30,22H31V23H30zM32,22H33V23H32zM33,22H34V23H33zM37,22H38V23H37zM38,22H39V23H38zM2,23H3V24H2zM3,23H4V24H3zM4,23H5V24H4zM5,23H6V24H5zM7,23H8V24H7zM10,23H11V24H10zM11,23H12V24H11zM16,23H17V24H16zM18,23H19V24H18zM20,23H21V24H20zM24,23H25V24H24zM28,23H29V24H28zM31,23H32V24H31zM32,23H33V24H32zM36,23H37V24H36zM38,23H39V24H38zM2,24H3V25H2zM5,24H6V25H5zM7,24H8V25H7zM8,24H9V25H8zM11,24H12V25H11zM12,24H13V25H12zM15,24H16V25H15zM17,24H18V25H17zM19,24H20V25H19zM22,24H23V25H22zM23,24H24V25H23zM25,24H26V25H25zM26,24H27V25H26zM27,24H28V25H27zM30,24H31V25H30zM34,24H35V25H34zM35,24H36V25H35zM38,24H39V25H38zM3,25H4V26H3zM5,25H6V26H5zM10,25H11V26H10zM11,25H12V26H11zM12,25H13V26H12zM16,25H17V26H16zM19,25H20V26H19zM20,25H21V26H20zM23,25H24V26H23zM24,25H25V26H24zM26,25H27V26H26zM38,25H39V26H38zM2,26H3V27H2zM4,26H5V27H4zM6,26H7V27H6zM7,26H8V27H7zM8,26H9V27H8zM9,26H10V27H9zM10,26H11V27H10zM11,26H12V27H11zM14,26H15V27H14zM15,26H16V27H15zM16,26H17V27H16zM17,26H18V27H17zM21,26H22V27H21zM22,26H23V27H22zM23,26H24V27H23zM24,26H25V27H24zM25,26H26V27H25zM26,26H27V27H26zM29,26H30V27H29zM30,26H31V27H30zM32,26H33V27H32zM33,26H34V27H33zM38,26H39V27H38zM6,27H7V28H6zM10,27H11V28H10zM11,27H12V28H11zM12,27H13V28H12zM16,27H17V28H16zM17,27H18V28H17zM18,27H19V28H18zM19,27H20V28H19zM20,27H21V28H20zM23,27H24V28H23zM25,27H26V28H25zM26,27H27V28H26zM27,27H28V28H27zM29,27H30V28H29zM32,27H33V28H32zM33,27H34V28H33zM37,27H38V28H37zM38,27H39V28H38zM2,28H3V29H2zM4,28H5V29H4zM5,28H6V29H5zM6,28H7V29H6zM7,28H8V29H7zM8,28H9V29H8zM10,28H11V29H10zM11,28H12V29H11zM15,28H16V29H15zM16,28H17V29H16zM17,28H18V29H17zM19,28H20V29H19zM20,28H21V29H20zM24,28H25V29H24zM25,28H26V29H25zM26,28H27V29H26zM28,28H29V29H28zM32,28H33V29H32zM33,28H34V29H33zM34,28H35V29H34zM36,28H37V29H36zM37,28H38V29H37zM38,28H39V29H38zM3,29H4V30H3zM4,29H5V30H4zM5,29H6V30H5zM10,29H11V30H10zM11,29H12V30H11zM15,29H16V30H15zM19,29H20V30H19zM23,29H24V30H23zM26,29H27V30H26zM27,29H28V30H27zM28,29H29V30H28zM29,29H30V30H29zM30,29H31V30H30zM32,29H33V30H32zM33,29H34V30H33zM35,29H36V30H35zM38,29H39V30H38zM2,30H3V31H2zM6,30H7V31H6zM7,30H8V31H7zM8,30H9V31H8zM10,30H11V31H10zM11,30H12V31H11zM15,30H16V31H15zM18,30H19V31H18zM20,30H21V31H20zM22,30H23V31H22zM23,30H24V31H23zM24,30H25V31H24zM25,30H26V31H25zM27,30H28V31H27zM30,30H31V31H30zM31,30H32V31H31zM32,30H33V31H32zM33,30H34V31H33zM34,30H35V31H34zM35,30H36V31H35zM37,30H38V31H37zM10,31H11V32H10zM13,31H14V32H13zM16,31H17V32H16zM19,31H20V32H19zM20,31H21V32H20zM21,31H22V32H21zM22,31H23V32H22zM27,31H28V32H27zM28,31H29V32H28zM29,31H30V32H29zM30,31H31V32H30zM34,31H35V32H34zM38,31H39V32H38zM2,32H3V33H2zM3,32H4V33H3zM4,32H5V33H4zM5,32H6V33H5zM6,32H7V33H6zM7,32H8V33H7zM8,32H9V33H8zM12,32H13V33H12zM14,32H15V33H14zM19,32H20V33H19zM20,32H21V33H20zM22,32H23V33H22zM27,32H28V33H27zM28,32H29V33H28zM29,32H30V33H29zM30,32H31V33H30zM32,32H33V33H32zM34,32H35V33H34zM36,32H37V33H36zM37,32H38V33H37zM38,32H39V33H38zM2,33H3V34H2zM8,33H9V34H8zM10,33H11V34H10zM13,33H14V34H13zM17,33H18V34H17zM19,33H20V34H19zM21,33H22V34H21zM22,33H23V34H22zM23,33H24V34H23zM25,33H26V34H25zM26,33H27V34H26zM27,33H28V34H27zM28,33H29V34H28zM30,33H31V34H30zM34,33H35V34H34zM37,33H38V34H37zM2,34H3V35H2zM4,34H5V35H4zM5,34H6V35H5zM6,34H7V35H6zM8,34H9V35H8zM10,34H11V35H10zM11,34H12V35H11zM13,34H14V35H13zM20,34H21V35H20zM27,34H28V35H27zM30,34H31V35H30zM31,34H32V35H31zM32,34H33V35H32zM33,34H34V35H33zM34,34H35V35H34zM35,34H36V35H35zM38,34H39V35H38zM2,35H3V36H2zM4,35H5V36H4zM5,35H6V36H5zM6,35H7V36H6zM8,35H9V36H8zM11,35H12V36H11zM12,35H13V36H12zM13,35H14V36H13zM17,35H18V36H17zM19,35H20V36H19zM21,35H22V36H21zM22,35H23V36H22zM25,35H26V36H25zM27,35H28V36H27zM30,35H31V36H30zM31,35H32V36H31zM34,35H35V36H34zM36,35H37V36H36zM37,35H38V36H37zM38,35H39V36H38zM2,36H3V37H2zM4,36H5V37H4zM5,36H6V37H5zM6,36H7V37H6zM8,36H9V37H8zM10,36H11V37H10zM12,36H13V37H12zM13,36H14V37H13zM17,36H18V37H17zM18,36H19V37H18zM19,36H20V37H19zM20,36H21V37H20zM27,36H28V37H27zM29,36H30V37H29zM31,36H32V37H31zM33,36H34V37H33zM34,36H35V37H34zM38,36H39V37H38zM2,37H3V38H2zM8,37H9V38H8zM12,37H13V38H12zM14,37H15V38H14zM15,37H16V38H15zM17,37H18V38H17zM18,37H19V38H18zM19,37H20V38H19zM21,37H22V38H21zM22,37H23V38H22zM23,37H24V38H23zM24,37H25V38H24zM25,37H26V38H25zM27,37H28V38H27zM28,37H29V38H28zM29,37H30V38H29zM30,37H31V38H30zM31,37H32V38H31zM37,37H38V38H37zM2,38H3V39H2zM3,38H4V39H3zM4,38H5V39H4zM5,38H6V39H5zM6,38H7V39H6zM7,38H8V39H7zM8,38H9V39H8zM11,38H12V39H11zM13,38H14V39H13zM14,38H15V39H14zM17,38H18V39H17zM19,38H20V39H19zM21,38H22V39H21zM22,38H23V39H22zM23,38H24V39H23zM24,38H25V39H24zM27,38H28V39H27zM28,38H29V39H28zM29,38H30V39H29zM30,38H31V39H30zM32,38H33V39H32zM34,38H35V39H34zM37,38H38V39H37zM38,38H39V39H38z" id="qr-path" fill="#000000" fill-opacity="1" fill-rule="nonzero" stroke="none"/>
</svg>